<?xml version="1.0" encoding="UTF-8"?>
<svg version="1.1" xmlns="http://www.w3.org/2000/svg" width="1024" height="1024" viewBox="280 345 460 330">
<path d="M0 0 C2.65086372 -0.00435211 5.30171621 -0.0094734 7.95257568 -0.01548767 C14.38279448 -0.02817909 20.8129714 -0.03003523 27.24320062 -0.02768741 C32.47680901 -0.02589733 37.7104048 -0.02766861 42.94401169 -0.03191185 C44.06548842 -0.03280463 44.06548842 -0.03280463 45.20962124 -0.03371545 C46.72899641 -0.03492734 48.24837157 -0.03614147 49.76774673 -0.03735783 C63.98933674 -0.04821261 78.21090299 -0.04608105 92.43249433 -0.03997298 C105.40364727 -0.03480938 118.37472499 -0.04604824 131.34586306 -0.0650712 C144.70425004 -0.08450993 158.06260155 -0.09269483 171.42100275 -0.08894795 C178.90473366 -0.08704455 186.38840063 -0.08943845 193.8721199 -0.10366249 C200.24553455 -0.11565476 206.61884593 -0.11689453 212.9922622 -0.10487232 C216.23520992 -0.09903715 219.47793333 -0.09940159 222.72087479 -0.10987473 C255.76834255 -0.20883029 284.94929404 5.03952802 309.85693359 28.2746582 C313.19961528 31.74005214 316.09192054 35.33628008 318.85693359 39.2746582 C319.91847656 40.78479492 319.91847656 40.78479492 321.00146484 42.32543945 C331.87646428 58.84978924 335.71434038 78.00334526 332.68115234 97.45825195 C329.48034611 112.27904667 322.82661034 124.94129185 312.85693359 136.2746582 C311.85726562 137.41741211 311.85726562 137.41741211 310.83740234 138.58325195 C305.92972934 143.83692045 300.57826769 147.65679601 294.46582031 151.35693359 C291.09693371 153.25130118 291.09693371 153.25130118 288.85693359 156.2746582 C290.19691406 156.66331055 290.19691406 156.66331055 291.56396484 157.05981445 C307.96165678 163.10925952 320.40064194 181.75704984 327.73193359 196.8996582 C331.79087654 206.65364828 333.39918444 216.11646992 333.29443359 226.6496582 C333.28541016 227.74528076 333.27638672 228.84090332 333.26708984 229.96972656 C332.81783936 251.01118434 322.76440037 269.85592857 308.48193359 285.0246582 C286.2329379 306.14321994 257.66824113 313.45618891 227.77792358 313.40837097 C226.71879592 313.41063653 225.65966825 313.41290208 224.5684458 313.41523629 C221.04919991 313.42152388 217.52999305 313.42075032 214.01074219 313.41992188 C211.47515819 313.42291666 208.93957465 313.42631993 206.4039917 313.43009949 C200.24823338 313.43799782 194.09248916 313.44115276 187.93672626 313.44171187 C182.9271218 313.44218873 177.91752048 313.44425196 172.90791702 313.44741249 C158.67126395 313.45621005 144.43461838 313.46083334 130.19796257 313.46008202 C129.43202945 313.46004206 128.66609634 313.4600021 127.87695312 313.45996094 C126.72663306 313.45989962 126.72663306 313.45989962 125.5530742 313.45983706 C113.13658123 313.45943097 100.72011864 313.46899343 88.30363445 313.4830993 C75.5216317 313.49750458 62.73964372 313.50436719 49.95763266 313.50350553 C42.79476425 313.50317496 35.63192767 313.50586004 28.46906662 313.51668358 C21.7269916 313.52680683 14.98499459 313.52641105 8.24291229 313.51916695 C5.77960486 313.518127 3.31629316 313.52044861 0.85299301 313.5265274 C-33.49565386 313.60574733 -64.94269031 308.74232515 -90.76806641 283.9621582 C-101.35247292 273.04698899 -109.10642808 259.22426225 -112.14306641 244.2746582 C-112.32482422 243.40711914 -112.50658203 242.53958008 -112.69384766 241.64575195 C-115.59379049 219.88357227 -111.70868571 199.39101241 -99.05712891 181.2902832 C-97.15270862 178.88239548 -95.17903176 176.57153508 -93.14306641 174.2746582 C-92.65322266 173.65461914 -92.16337891 173.03458008 -91.65869141 172.39575195 C-86.03307176 165.33212279 -78.64089494 160.18965918 -71.14306641 155.2746582 C-72.07248047 154.62239258 -73.00189453 153.97012695 -73.95947266 153.2980957 C-77.70998595 150.65458221 -81.43224693 147.97353514 -85.14306641 145.2746582 C-85.84818359 144.76547852 -86.55330078 144.25629883 -87.27978516 143.73168945 C-101.37829937 132.63721701 -110.89551035 113.78271393 -113.14306641 96.2746582 C-115.02138797 74.40885798 -110.70069205 55.09493525 -96.95556641 37.7121582 C-95.69542864 36.22386918 -94.42414628 34.74495945 -93.14306641 33.2746582 C-91.98097656 31.81672852 -91.98097656 31.81672852 -90.79541016 30.3293457 C-78.03819523 15.03857739 -58.21023534 6.23645997 -39.14306641 2.2746582 C-37.96754432 2.01585735 -37.96754432 2.01585735 -36.76827431 1.75182819 C-24.63471324 -0.52175785 -12.29415788 -0.01334323 0 0 Z M-71.8125 50.8190918 C-79.34330422 59.05737707 -84.31765151 70.13155706 -85.14306641 81.2746582 C-85.19462891 81.9243457 -85.24619141 82.5740332 -85.29931641 83.2434082 C-85.89399929 96.92111446 -80.75107959 109.0156423 -72.14306641 119.3996582 C-57.93145409 134.4247298 -39.80745408 138.84643391 -19.76165771 139.44732666 C-15.38582362 139.52516852 -11.01143116 139.50109283 -6.63525391 139.4699707 C-5.04672426 139.46622494 -3.45819224 139.4633854 -1.86965942 139.46139526 C2.24341598 139.4538815 6.35634245 139.43434395 10.46936035 139.4119873 C14.69358304 139.3912592 18.91783059 139.38233687 23.14208984 139.37231445 C31.38043825 139.35108191 39.61866723 139.31710117 47.85693359 139.2746582 C47.85693359 138.2846582 47.85693359 137.2946582 47.85693359 136.2746582 C48.84693359 137.2646582 49.83693359 138.2546582 50.85693359 139.2746582 C49.85693359 141.2746582 49.85693359 141.2746582 46.98193359 142.8371582 C43.68554168 144.65448493 40.92375154 146.78980443 38.04443359 149.2121582 C33.02392986 153.37736837 27.90034719 157.37653657 22.66943359 161.2746582 C21.92137451 161.85078857 21.17331543 162.42691895 20.40258789 163.02050781 C15.65333378 166.51579542 11.83918688 168.25521215 5.85693359 168.2746582 C4.46027466 168.28795166 4.46027466 168.28795166 3.03540039 168.30151367 C-0.21247406 168.30202199 -3.45803701 168.25795097 -6.70556641 168.2121582 C-31.17478118 168.08440386 -51.25325967 172.27498328 -69.56494141 189.5402832 C-80.70163345 201.35192628 -85.53647236 214.77993428 -85.35400391 230.8371582 C-84.70937292 241.34225574 -81.15743655 252.99970912 -73.14306641 260.2746582 C-72.27166016 259.58500977 -71.40025391 258.89536133 -70.50244141 258.18481445 C-60.75452219 250.48633043 -50.90296986 242.96131668 -40.80517578 235.7265625 C-32.93365811 230.08424384 -25.2277844 224.27986492 -17.61328125 218.29541016 C-13.19889686 214.83784527 -8.73381197 211.49384768 -4.14306641 208.2746582 C1.30062478 204.45669552 6.562185 200.43970423 11.79443359 196.3371582 C17.80210989 191.62729646 23.86026228 187.01526378 30.03466797 182.52661133 C37.89878417 176.8049893 45.65767521 170.9428433 53.43066406 165.09838867 C57.73344572 161.86415855 62.04081003 158.63604076 66.34765625 155.40722656 C69.18195281 153.28204271 72.01517526 151.15551154 74.84521484 149.0246582 C80.14067755 145.04024366 85.46007019 141.09185997 90.80102539 137.16870117 C98.07944905 131.82230596 105.29807029 126.42182252 112.43505859 120.88793945 C116.60845638 117.67772981 120.86101309 114.57538107 125.10693359 111.4621582 C131.24121463 106.96368544 137.32887489 102.41451398 143.35693359 97.7746582 C150.02750816 92.64266836 156.77429573 87.62419562 163.56005859 82.64575195 C169.35366484 78.39209939 175.11302474 74.09514453 180.85693359 69.7746582 C187.30766193 64.92255603 193.78550809 60.11086828 200.29443359 55.3371582 C207.36093756 50.14694831 214.37499875 44.89059922 221.35693359 39.5871582 C222.71129517 38.56150757 222.71129517 38.56150757 224.09301758 37.51513672 C224.93292236 36.87503662 225.77282715 36.23493652 226.63818359 35.57543945 C227.38132812 35.00994385 228.12447266 34.44444824 228.89013672 33.86181641 C230.67280686 32.42324409 232.2757892 30.92917719 233.85693359 29.2746582 C230.98448292 28.4553243 228.43593849 28.1487909 225.45265388 28.14602375 C224.57202439 28.1427993 223.6913949 28.13957486 222.78407967 28.1362527 C221.33926636 28.1385756 221.33926636 28.1385756 219.86526489 28.14094543 C218.3252471 28.1375471 218.3252471 28.1375471 216.75411785 28.13408011 C213.3028641 28.12773403 209.85164957 28.12856989 206.40039062 28.12939453 C203.92993621 28.12640328 201.45948226 28.12300083 198.98902893 28.11921692 C192.96633459 28.1112861 186.94365575 28.1081619 180.92095764 28.10760454 C176.02080908 28.10712914 171.12066374 28.10507318 166.2205162 28.10190392 C152.31467175 28.09309381 138.40883502 28.08848466 124.50298776 28.08923439 C123.75321762 28.08927435 123.00344748 28.0893143 122.23095703 28.08935547 C121.48026585 28.08939635 120.72957466 28.08943723 119.95613526 28.08947935 C107.81199763 28.0898851 95.66789112 28.08033455 83.52376248 28.0662171 C71.04144906 28.05182171 58.55915077 28.04494877 46.07682884 28.04581088 C39.07435981 28.04614194 32.07192334 28.04343545 25.06946182 28.03263283 C18.47523578 28.02252513 11.88106641 28.02289548 5.28683281 28.03014946 C2.87387301 28.03119141 0.46090887 28.0288557 -1.95204353 28.022789 C-28.96720052 27.95929908 -51.98601794 30.56203802 -71.8125 50.8190918 Z M270.85693359 36.2746582 C270.13892578 36.83411133 269.42091797 37.39356445 268.68115234 37.9699707 C261.97337119 43.16578625 255.19864178 48.25636034 248.35693359 53.2746582 C242.97873917 57.21975832 237.62777001 61.18707078 232.35693359 65.2746582 C226.27206725 69.99353415 220.07338102 74.54848674 213.86474609 79.1027832 C209.32003064 82.44235047 204.81358278 85.81848128 200.35693359 89.2746582 C195.24986171 93.23392858 190.06894794 97.07977798 184.85693359 100.8996582 C177.07645621 106.60367378 169.38993439 112.42132544 161.72998047 118.28588867 C154.87365489 123.52513225 147.95044732 128.66742348 140.98388672 133.7590332 C138.07101988 135.89052415 135.17577685 138.0195836 132.35693359 140.2746582 C128.77475998 143.14039709 125.06017013 145.81815357 121.35693359 148.5246582 C114.13115555 153.8238448 106.97367514 159.20500297 99.85693359 164.6496582 C93.81050505 169.27471059 87.74836613 173.86063102 81.56787109 178.3059082 C75.97798904 182.36541909 70.47565574 186.54403273 64.95507812 190.69702148 C60.83007901 193.79869059 56.69970934 196.89320357 52.5703125 199.98901367 C49.66277597 202.1691312 46.75622646 204.35048321 43.85302734 206.53637695 C39.461775 209.84050424 35.06115667 213.1292468 30.63037109 216.38012695 C21.06088753 223.40145146 11.57105687 230.51408487 2.14355469 237.72509766 C-3.0024924 241.6570549 -8.18033031 245.53050271 -13.43994141 249.30981445 C-16.89298144 251.8197554 -20.29732277 254.39188587 -23.70556641 256.9621582 C-32.42359581 263.53060909 -41.27321498 269.91338906 -50.14306641 276.2746582 C-42.14534696 284.80953791 -25.47182422 284.93249831 -14.42894745 285.38615894 C-7.00896594 285.57234151 0.41173784 285.54721164 7.83349609 285.53344727 C10.31085309 285.53616268 12.78820928 285.53972668 15.26556396 285.54406738 C21.25608719 285.55219086 27.24654064 285.55107049 33.23706102 285.5452421 C38.11208538 285.54069816 42.98709571 285.54012442 47.86212158 285.54228973 C48.90871679 285.54274943 48.90871679 285.54274943 49.97645533 285.54321842 C51.39452982 285.54385796 52.81260431 285.54450639 54.2306788 285.5451636 C67.48222882 285.55084668 80.73375103 285.54434092 93.98529649 285.53356287 C105.31947589 285.52462921 116.6536143 285.52618182 127.98779297 285.53540039 C141.19668691 285.54613894 154.40555657 285.55029755 167.61445427 285.54417586 C169.02688471 285.54353886 170.43931516 285.54291012 171.85174561 285.54228973 C172.54642272 285.54198118 173.24109983 285.54167263 173.95682776 285.54135473 C178.8176804 285.53963851 183.67851745 285.54251955 188.53936768 285.54724884 C195.09930907 285.55349185 201.65918571 285.54895434 208.21912384 285.53746033 C210.61470666 285.53483455 213.01029603 285.53554282 215.40587616 285.53998566 C242.0177104 285.58475832 268.16390715 284.63487603 288.22802734 264.9387207 C289.52933594 263.62000977 289.52933594 263.62000977 290.85693359 262.2746582 C291.48728516 261.64301758 292.11763672 261.01137695 292.76708984 260.3605957 C301.94602524 250.45391863 305.55784691 236.83489098 305.20849609 223.57543945 C303.83617747 210.69089234 297.68572797 198.68166078 288.85693359 189.2746582 C288.19693359 189.2746582 287.53693359 189.2746582 286.85693359 189.2746582 C286.52693359 188.2846582 286.19693359 187.2946582 285.85693359 186.2746582 C260.50221526 163.95808695 225.91647036 168.13760441 194.60693359 168.2746582 C189.13562601 168.29852953 183.66434886 168.31880992 178.19300079 168.33059692 C176.04250324 168.33693368 173.89210484 168.34942627 171.74163818 168.36230469 C162.73287158 168.39537737 153.83348139 167.9906671 144.85693359 167.2746582 C145.43429764 166.88596054 146.01166168 166.49726288 146.60652161 166.0967865 C156.75342808 159.2602835 166.60198684 152.35601063 175.98193359 144.4934082 C176.66255859 143.9468457 177.34318359 143.4002832 178.04443359 142.8371582 C178.61548828 142.36407227 179.18654297 141.89098633 179.77490234 141.40356445 C185.69675758 138.19265233 193.60997704 139.15955549 200.13427734 139.2121582 C201.21842422 139.21594482 202.30257111 139.21973145 203.41957092 139.22363281 C208.02805366 139.23984654 212.63644524 139.26777566 217.24487305 139.29516602 C256.8469482 139.78282521 256.8469482 139.78282521 290.29443359 120.3996582 C299.60433713 110.25246141 304.81460824 98.44211532 305.29443359 84.5871582 C304.58459295 69.1309506 297.81313173 56.9048868 286.85693359 46.2746582 C281.80766001 41.78359577 277.09058018 38.80283206 270.85693359 36.2746582 Z M48.85693359 137.2746582 C49.85693359 139.2746582 49.85693359 139.2746582 49.85693359 139.2746582 Z " fill="#FEFEFE" transform="translate(402.14306640625,352.725341796875)"/>
<path d="" fill="#F3F5F5" transform="translate(0,0)"/>
<path d="M0 0 C3 1 3 1 3 1 Z " fill="#FBFAF9" transform="translate(372,383)"/>
<path d="M0 0 C2 1 2 1 2 1 Z " fill="#F3F3F4" transform="translate(646,666)"/>
<path d="" fill="#EFF1F1" transform="translate(0,0)"/>
<path d="" fill="#FDFFFE" transform="translate(0,0)"/>
<path d="M0 0 C2 1 2 1 2 1 Z " fill="#FAFBFC" transform="translate(603,382)"/>
<path d="M0 0 C2 1 2 1 2 1 Z " fill="#FAFAFC" transform="translate(587,382)"/>
<path d="M0 0 C2 1 2 1 2 1 Z " fill="#FCFAFB" transform="translate(579,382)"/>
<path d="M0 0 C2 1 2 1 2 1 Z " fill="#FBFBFC" transform="translate(555,382)"/>
<path d="M0 0 C2 1 2 1 2 1 Z " fill="#FBFBFC" transform="translate(499,382)"/>
<path d="M0 0 C2 1 2 1 2 1 Z " fill="#FBFBFC" transform="translate(483,382)"/>
<path d="M0 0 C2 1 2 1 2 1 Z " fill="#FCFCFC" transform="translate(480,382)"/>
<path d="M0 0 C2 1 2 1 2 1 Z " fill="#FAF9FB" transform="translate(435,382)"/>
<path d="" fill="#414241" transform="translate(0,0)"/>
<path d="" fill="#424041" transform="translate(0,0)"/>
<path d="" fill="#414041" transform="translate(0,0)"/>
<path d="" fill="#414041" transform="translate(0,0)"/>
<path d="" fill="#403F41" transform="translate(0,0)"/>
<path d="" fill="#414141" transform="translate(0,0)"/>
<path d="" fill="#434240" transform="translate(0,0)"/>
<path d="" fill="#3F3F40" transform="translate(0,0)"/>
<path d="" fill="#3E3E3E" transform="translate(0,0)"/>
<path d="" fill="#3E3F3F" transform="translate(0,0)"/>
<path d="" fill="#424241" transform="translate(0,0)"/>
<path d="" fill="#3E3F3E" transform="translate(0,0)"/>
<path d="" fill="#414040" transform="translate(0,0)"/>
<path d="" fill="#404041" transform="translate(0,0)"/>
<path d="" fill="#434240" transform="translate(0,0)"/>
<path d="" fill="#404242" transform="translate(0,0)"/>
<path d="" fill="#424342" transform="translate(0,0)"/>
<path d="" fill="#424042" transform="translate(0,0)"/>
<path d="" fill="#434340" transform="translate(0,0)"/>
<path d="" fill="#434444" transform="translate(0,0)"/>
<path d="" fill="#404140" transform="translate(0,0)"/>
<path d="" fill="#40403F" transform="translate(0,0)"/>
<path d="" fill="#3E403E" transform="translate(0,0)"/>
<path d="" fill="#3F3D3E" transform="translate(0,0)"/>
<path d="" fill="#444644" transform="translate(0,0)"/>
<path d="" fill="#414141" transform="translate(0,0)"/>
<path d="" fill="#3B3D3B" transform="translate(0,0)"/>
<path d="" fill="#3B3C3A" transform="translate(0,0)"/>
<path d="" fill="#3E3F3F" transform="translate(0,0)"/>
<path d="" fill="#3B393B" transform="translate(0,0)"/>
<path d="" fill="#504F4E" transform="translate(0,0)"/>
<path d="" fill="#565754" transform="translate(0,0)"/>
<path d="" fill="#686A69" transform="translate(0,0)"/>
<path d="" fill="#464544" transform="translate(0,0)"/>
<path d="" fill="#444547" transform="translate(0,0)"/>
<path d="" fill="#F6F6F7" transform="translate(0,0)"/>
<path d="" fill="#F0F2F2" transform="translate(0,0)"/>
<path d="" fill="#EEEFEE" transform="translate(0,0)"/>
<path d="" fill="#EDF0F0" transform="translate(0,0)"/>
<path d="" fill="#F1F2F2" transform="translate(0,0)"/>
<path d="" fill="#F1F2F2" transform="translate(0,0)"/>
<path d="" fill="#595958" transform="translate(0,0)"/>
<path d="" fill="#464646" transform="translate(0,0)"/>
<path d="" fill="#FDFEFE" transform="translate(0,0)"/>
<path d="" fill="#FDFDFD" transform="translate(0,0)"/>
<path d="" fill="#FDFCFB" transform="translate(0,0)"/>
<path d="" fill="#FAFCFC" transform="translate(0,0)"/>
<path d="" fill="#EEEFEF" transform="translate(0,0)"/>
<path d="" fill="#EFF2F2" transform="translate(0,0)"/>
<path d="" fill="#FDFDFE" transform="translate(0,0)"/>
<path d="" fill="#FCFCFC" transform="translate(0,0)"/>
<path d="" fill="#F0F0F1" transform="translate(0,0)"/>
<path d="" fill="#FEFDFD" transform="translate(0,0)"/>
<path d="" fill="#4A4B49" transform="translate(0,0)"/>
<path d="" fill="#FBFCFE" transform="translate(0,0)"/>
<path d="" fill="#FCFBFC" transform="translate(0,0)"/>
<path d="" fill="#F3F4F3" transform="translate(0,0)"/>
<path d="" fill="#FEFDFF" transform="translate(0,0)"/>
<path d="" fill="#F5F7F6" transform="translate(0,0)"/>
<path d="" fill="#F6F8F8" transform="translate(0,0)"/>
<path d="" fill="#FFFEFF" transform="translate(0,0)"/>
<path d="" fill="#FBFCFD" transform="translate(0,0)"/>
<path d="" fill="#FDFDFC" transform="translate(0,0)"/>
<path d="" fill="#FCFCFC" transform="translate(0,0)"/>
<path d="" fill="#FDFEFC" transform="translate(0,0)"/>
<path d="" fill="#FBFDFD" transform="translate(0,0)"/>
<path d="" fill="#FAFBFC" transform="translate(0,0)"/>
<path d="" fill="#FCFDFC" transform="translate(0,0)"/>
<path d="" fill="#FDFDFC" transform="translate(0,0)"/>
<path d="" fill="#F6F8F8" transform="translate(0,0)"/>
<path d="" fill="#F4F5F5" transform="translate(0,0)"/>
<path d="" fill="#525252" transform="translate(0,0)"/>
<path d="" fill="#FDFDFE" transform="translate(0,0)"/>
<path d="" fill="#FBFBFB" transform="translate(0,0)"/>
<path d="" fill="#EFF1F0" transform="translate(0,0)"/>
<path d="" fill="#FDFDFE" transform="translate(0,0)"/>
<path d="" fill="#F0F2F1" transform="translate(0,0)"/>
<path d="" fill="#FCFEFE" transform="translate(0,0)"/>
<path d="" fill="#FCFCFE" transform="translate(0,0)"/>
<path d="" fill="#FEFEFF" transform="translate(0,0)"/>
<path d="" fill="#FCFDFD" transform="translate(0,0)"/>
<path d="" fill="#FDFCFD" transform="translate(0,0)"/>
<path d="" fill="#FDFCFC" transform="translate(0,0)"/>
<path d="" fill="#FBFDFD" transform="translate(0,0)"/>
<path d="" fill="#FBFCFC" transform="translate(0,0)"/>
<path d="" fill="#FAFCFC" transform="translate(0,0)"/>
<path d="" fill="#FBFCFB" transform="translate(0,0)"/>
<path d="" fill="#FBFAFC" transform="translate(0,0)"/>
<path d="" fill="#FAFBFC" transform="translate(0,0)"/>
<path d="" fill="#F0F0F2" transform="translate(0,0)"/>
<path d="" fill="#F4F4F3" transform="translate(0,0)"/>
<path d="" fill="#F2F4F3" transform="translate(0,0)"/>
<path d="" fill="#434544" transform="translate(0,0)"/>
<path d="" fill="#5A5A5B" transform="translate(0,0)"/>
<path d="" fill="#454644" transform="translate(0,0)"/>
<path d="" fill="#444643" transform="translate(0,0)"/>
<path d="" fill="#464645" transform="translate(0,0)"/>
<path d="" fill="#3D3F3F" transform="translate(0,0)"/>
<path d="" fill="#3E3E3D" transform="translate(0,0)"/>
<path d="" fill="#4F514E" transform="translate(0,0)"/>
<path d="" fill="#454545" transform="translate(0,0)"/>
<path d="" fill="#3F403F" transform="translate(0,0)"/>
<path d="" fill="#474647" transform="translate(0,0)"/>
<path d="" fill="#404240" transform="translate(0,0)"/>
<path d="" fill="#434342" transform="translate(0,0)"/>
<path d="" fill="#434544" transform="translate(0,0)"/>
<path d="" fill="#404040" transform="translate(0,0)"/>
<path d="" fill="#434443" transform="translate(0,0)"/>
<path d="" fill="#404041" transform="translate(0,0)"/>
<path d="" fill="#3F3F41" transform="translate(0,0)"/>
<path d="" fill="#444442" transform="translate(0,0)"/>
<path d="" fill="#424444" transform="translate(0,0)"/>
<path d="" fill="#454545" transform="translate(0,0)"/>
<path d="" fill="#454545" transform="translate(0,0)"/>
<path d="" fill="#414341" transform="translate(0,0)"/>
<path d="" fill="#444443" transform="translate(0,0)"/>
<path d="" fill="#434442" transform="translate(0,0)"/>
<path d="" fill="#454445" transform="translate(0,0)"/>
<path d="" fill="#444343" transform="translate(0,0)"/>
<path d="" fill="#434444" transform="translate(0,0)"/>
<path d="" fill="#464645" transform="translate(0,0)"/>
</svg>
